HIERARCHY
ROOT Hips
{
  OFFSET -125.316 89.8521 -57.488
  CHANNELS 6 Xposition Yposition Zposition Zrotation Xrotation Yrotation
  JOINT RightUpLeg
  {
    OFFSET -8.9458 -8.66707 0.101652
    CHANNELS 3 Zrotation Xrotation Yrotation
    JOINT RightLeg
    {
      OFFSET 0 -44.4227 1.3727
      CHANNELS 3 Zrotation Xrotation Yrotation
      JOINT RightFoot
      {
        OFFSET 0.253549 -42.0924 -1.46059
        CHANNELS 3 Zrotation Xrotation Yrotation
        JOINT RightToes
        {
          OFFSET 0.04 -4.41509 8.4991
          CHANNELS 3 Zrotation Xrotation Yrotation
          End Site
          {
            OFFSET -0.08 -0.137448 9.77979
          }
        }
      }
    }
  }
  JOINT Spine
  {
    OFFSET 0 11.8905 0
    CHANNELS 3 Zrotation Xrotation Yrotation
    JOINT Spine1
    {
      OFFSET 0 25.6574 0.127663
      CHANNELS 3 Zrotation Xrotation Yrotation
      JOINT HEad
      {
        OFFSET 0 8.73416 0.011341
        CHANNELS 3 Zrotation Xrotation Yrotation
        End Site
        {
          OFFSET -0.29 12.7742 2.51395
        }
      }
      JOINT LeftShoulder1
      {
        OFFSET 8.99 -0.362252 -0.22
        CHANNELS 3 Zrotation Xrotation Yrotation
        JOINT LeftArm
        {
          OFFSET 10.2827 -0.00338 0.322123
          CHANNELS 3 Zrotation Xrotation Yrotation
          JOINT LeftForeArm
          {
            OFFSET 32.7669 0.099144 -1.42434
            CHANNELS 3 Zrotation Xrotation Yrotation
            JOINT LeftHand
            {
              OFFSET 27.5643 0.085362 1.02216
              CHANNELS 3 Zrotation Xrotation Yrotation
              End Site
              {
                OFFSET 16.7443 -0.6 1.50291
              }
            }
          }
        }
      }
      JOINT RightShoulder
      {
        OFFSET -8.99 -0.362252 -0.22
        CHANNELS 3 Zrotation Xrotation Yrotation
        JOINT RightArm
        {
          OFFSET -10.2827 -0.00338 0.322123
          CHANNELS 3 Zrotation Xrotation Yrotation
          JOINT RightForeArm
          {
            OFFSET -32.8971 0.099144 -1.42434
            CHANNELS 3 Zrotation Xrotation Yrotation
            JOINT RightHand
            {
              OFFSET -27.4921 0.085362 1.02216
              CHANNELS 3 Zrotation Xrotation Yrotation
              End Site
              {
                OFFSET -16.6312 -0.6 1.50291
              }
            }
          }
        }
      }
    }
  }
  JOINT LeftUpLeg
  {
    OFFSET 8.9458 -8.66707 0.101652
    CHANNELS 3 Zrotation Xrotation Yrotation
    JOINT LeftLeg
    {
      OFFSET 0 -44.4227 1.3727
      CHANNELS 3 Zrotation Xrotation Yrotation
      JOINT LeftFoot
      {
        OFFSET -0.253549 -42.0924 -1.46059
        CHANNELS 3 Zrotation Xrotation Yrotation
        JOINT LeftToes
        {
          OFFSET -0.04 -4.41509 8.4991
          CHANNELS 3 Zrotation Xrotation Yrotation
          End Site
          {
            OFFSET 0.08 -0.047448 9.77979
          }
        }
      }
    }
  }
}
MOTION
Frames:	11
Frame Time:	0.0166667
-137.885 87.0249 -33.7295 -1.52847 -13.2055 -8.75619 -4.4614 14.5682 7.19681 21.2824 51.5553 -18.4145 18.8119 18.7377 -4.34774 -43.2768 -34.6478 -17.1283 -2.92878 12.463 6.77871 -9.76174 24.6773 15.0027 10.1652 -12.1472 -9.18596 -7.95139e-016 0 -3.18055e-015 -77.1715 -20.0856 -49.591 -19.7087 39.1785 -88.8875 20.4988 5.98795 -18.0385 -0.874315 0.914863 19.587 103.689 -40.9947 111.798 25.293 50.7596 50.6771 6.49609 9.36068 -12.9749 15.3835 -21.8948 5.43549 1.16866 24.5952 -26.0663 -21.4991 9.4915 3.16681 -4.94658 -16.6386 -6.33808 
-137.804 87.3928 -33.6863 -3.29248 -13.4901 -10.5685 -5.30879 12.1264 7.4343 21.1502 55.3156 -15.8612 22.2787 22.2345 -5.83174 -47.5448 -37.9376 -14.6091 -2.20621 13.2659 6.88909 -8.25598 26.3228 15.2244 9.04561 -13.6974 -8.26445 7.95139e-016 0 -1.59028e-015 -82.7478 -21.3926 -55.5604 -18.0851 41.5307 -89.9371 21.6716 6.22423 -15.547 4.77467 1.82671 17.788 102.302 -42.6273 107.851 39.3332 61.9012 61.1247 0.846718 9.50948 -32.5533 16.9882 -20.7153 5.0649 1.4428 24.5794 -24.7315 -20.795 9.75381 3.10455 -5.15641 -17.2234 -6.4911 
-137.588 87.677 -33.7381 -5.11836 -13.7647 -12.6065 -6.5659 9.45453 7.14805 20.0412 58.7803 -13.4664 24.8743 24.687 -7.05991 -51.7731 -40.8097 -13.8936 -1.43217 14.1365 6.99488 -6.52921 28.1045 15.341 8.02535 -15.0655 -7.24453 -1.59028e-015 0 1.59028e-015 -88.0424 -22.3092 -60.4655 -16.4143 43.3943 -91.4841 20.6493 6.80124 -13.3549 10.2538 2.52155 15.8808 80.3283 -41.9145 88.5634 26.1742 61.372 93.3486 -0.997902 10.0177 -52.2986 18.6995 -19.5886 3.85248 1.1632 24.9675 -22.5022 -19.9077 9.53685 2.92992 -5.29651 -17.7653 -6.02805 
-137.282 87.8125 -33.8787 -6.91173 -14.1544 -14.4461 -8.14025 6.80563 6.45213 18.3071 61.5329 -12.1073 25.8575 26.502 -7.75775 -55.5643 -42.7816 -15.0147 -0.577766 15.0557 6.65622 -4.52682 30.0316 14.4521 7.35933 -16.0624 -5.0889 7.95139e-016 9.54166e-015 -1.59028e-015 -91.0951 -23.9455 -63.5367 -15.4989 44.1692 -92.9953 17.5681 7.45578 -12.2457 15.322 3.18125 15.077 54.5352 -31.7969 67.416 6.11721 49.092 124.473 0.144086 9.37257 -67.2801 20.3835 -18.6245 2.02788 0.338197 25.797 -19.9439 -18.9273 8.99986 2.69408 -5.40567 -18.3652 -5.10356 
-136.899 87.7967 -34.0809 -8.64467 -14.7288 -15.9879 -9.96788 4.33518 5.74968 16.6318 63.3406 -12.0685 25.1216 27.5937 -7.7685 -57.5326 -43.4174 -16.553 0.424614 15.9829 5.67402 -2.19292 32.029 12.1671 6.95427 -16.5671 -1.29588 -2.48481e-016 0 -0 -90.5735 -27.0698 -64.4363 -16.1866 43.7806 -93.5972 13.7134 7.96168 -12.7632 19.9189 4.05416 15.8066 38.8556 -18.1763 55.2719 -2.67817 33.6234 136.83 2.63754 7.61223 -73.3145 21.9439 -17.8169 0.244594 -0.711786 26.9894 -17.8068 -18.0058 8.22354 2.44031 -5.4552 -18.907 -3.87891 
-136.422 87.661 -34.304 -10.3136 -15.4426 -17.3676 -11.9661 2.05278 5.42615 15.4854 64.1015 -12.7755 23.4315 27.7523 -7.26094 -56.6958 -42.8041 -16.8619 1.61664 16.8999 4.21859 0.476928 34.0199 8.8451 6.37213 -16.7287 3.64983 -0 -3.18055e-015 -0 -86.5088 -31.2831 -62.8024 -18.5533 42.8148 -93.0925 10.881 8.21519 -14.6691 23.9323 5.11101 17.3249 34.1814 -13.0789 49.6657 -3.08633 29.7874 139 3.79407 6.93794 -71.2907 23.3204 -17.123 -0.858248 -1.55121 28.4392 -16.5497 -17.306 7.38205 2.21982 -5.47367 -19.3495 -2.75643 
-135.831 87.4253 -34.5094 -11.9021 -16.1576 -18.7976 -14.0368 -0.148751 5.63857 14.7632 63.7872 -13.1196 22.1172 27.183 -6.73183 -53.7754 -41.4824 -15.6007 2.94234 17.8147 2.62737 3.4053 35.961 5.16171 5.28326 -16.8683 8.86254 3.18055e-015 3.18055e-015 -3.18055e-015 -80.3556 -35.7158 -58.7427 -21.9089 42.091 -91.8916 10.0311 8.15116 -17.144 27.0287 6.04318 18.5915 35.1291 -16.5008 47.1329 1.83534 36.2491 135.969 3.30054 7.56857 -64.9775 24.5111 -16.5571 -1.17592 -2.01361 30.0971 -15.8933 -16.8832 6.78672 2.07947 -5.60614 -19.9426 -2.3343 
-135.13 87.0906 -34.6566 -13.3667 -16.7161 -20.4685 -16.1008 -2.40631 6.34397 14.0884 62.4238 -12.1905 22.3061 26.4064 -6.64087 -50.4216 -40.094 -13.4644 4.25093 18.7269 1.17747 6.42809 37.8086 1.64566 3.78272 -17.1411 13.7354 1.59028e-015 0 -0 -74.2612 -40.0568 -53.3288 -25.4412 42.083 -90.1608 10.7477 7.81015 -19.4202 28.9132 6.58815 19.1575 37.1147 -21.2218 46.6142 9.01044 43.3868 129.445 2.52352 8.27563 -57.9587 25.5615 -16.1662 -1.08176 -2.29105 31.9579 -15.0692 -16.7141 6.62535 2.03529 -5.98557 -20.927 -3.0159 
-134.387 86.6352 -34.7234 -14.6268 -17.0056 -22.5068 -18.1062 -4.84269 7.41901 13.3281 60.1549 -9.83569 24.4778 25.8084 -7.18184 -47.7631 -39.1014 -11.0777 5.32487 19.6155 0.0499081 9.29339 39.5085 -1.34835 2.24861 -17.4457 17.9734 -3.18055e-015 -3.18055e-015 6.36111e-015 -69.7166 -44.4273 -47.8107 -28.4363 42.5635 -87.8381 12.1252 7.35622 -21.0067 29.6476 6.7129 19.0846 38.6838 -23.326 47.348 14.5838 46.8317 123.561 2.44046 8.4834 -53.0236 26.5309 -15.9868 -0.946763 -2.67557 34.0557 -13.4941 -16.8012 6.75292 2.06422 -6.60257 -22.1614 -4.7517 
-133.736 86.0249 -34.7093 -15.5671 -16.9943 -24.9683 -20.019 -7.53734 8.73423 12.6611 57.2844 -6.61043 28.3899 25.4591 -8.28976 -45.8904 -38.5493 -8.6256 5.90574 20.4341 -0.63842 11.6906 40.9895 -3.56532 1.08011 -17.5348 21.4726 -1.59028e-015 3.18055e-015 -0 -66.8645 -48.7495 -42.6579 -30.2732 42.9092 -85.1132 13.5841 6.94111 -21.7387 29.7104 6.57566 18.6185 39.4942 -22.5083 48.7437 15.8867 47.0211 121.696 3.07361 8.27724 -51.0471 27.4725 -16 -0.919823 -3.40386 36.4128 -11.0052 -17.1433 6.85224 2.12221 -7.32728 -23.2962 -7.11897 
-133.331 85.2498 -34.6129 -16.0835 -16.7684 -27.7889 -21.8023 -10.4041 10.1052 12.2118 54.2141 -3.23316 33.2105 25.3152 -9.72974 -44.3903 -38.1531 -6.27939 5.77934 21.0919 -0.864093 13.3468 42.137 -4.92049 0.507534 -17.1247 24.3154 -3.18055e-015 6.36111e-015 -3.18055e-015 -64.9212 -52.6788 -37.5059 -30.7895 42.7658 -82.2585 14.8598 6.64502 -21.729 29.8081 6.42562 18.0929 38.9965 -19.4773 50.2249 13.3128 44.9428 123.858 4.13556 7.79088 -51.6735 28.3809 -16.0911 -1.02739 -4.62991 38.9353 -7.70684 -17.6486 6.80284 2.18008 -8.07826 -24.2608 -9.663 
